<mxfile host="app.diagrams.net" agent="Mozilla/5.0 (X11; Linux x86_64) AppleWebKit/537.36 (KHTML, like Gecko) Chrome/133.0.0.0 Safari/537.36" version="27.0.6">
  <diagram name="Page-1" id="SAQzGOMNQt3Rnl-fFOZq">
    <mxGraphModel dx="701" dy="56" grid="1" gridSize="10" guides="1" tooltips="1" connect="1" arrows="1" fold="1" page="1" pageScale="1" pageWidth="120" pageHeight="200" math="0" shadow="0">
      <root>
        <mxCell id="0" />
        <mxCell id="1" parent="0" />
        <mxCell id="fTiIdBH1RYLGVKj4Ybnj-2" value="&lt;i&gt;User&lt;/i&gt;" style="swimlane;fontStyle=1;align=center;verticalAlign=middle;childLayout=stackLayout;horizontal=1;startSize=29;horizontalStack=0;resizeParent=1;resizeParentMax=0;resizeLast=0;collapsible=0;marginBottom=0;html=1;whiteSpace=wrap;" vertex="1" parent="1">
          <mxGeometry x="-100" y="10" width="140" height="100" as="geometry" />
        </mxCell>
        <mxCell id="fTiIdBH1RYLGVKj4Ybnj-4" value="- name&lt;div&gt;- email&lt;/div&gt;&lt;div&gt;- dateOfBirth&lt;/div&gt;&lt;div&gt;- phoneNumber&lt;/div&gt;" style="text;html=1;strokeColor=none;fillColor=none;align=left;verticalAlign=middle;spacingLeft=4;spacingRight=4;overflow=hidden;rotatable=0;points=[[0,0.5],[1,0.5]];portConstraint=eastwest;whiteSpace=wrap;" vertex="1" parent="fTiIdBH1RYLGVKj4Ybnj-2">
          <mxGeometry y="29" width="140" height="71" as="geometry" />
        </mxCell>
        <mxCell id="fTiIdBH1RYLGVKj4Ybnj-6" value="" style="endArrow=block;endSize=16;endFill=0;html=1;rounded=0;entryX=0.514;entryY=1.028;entryDx=0;entryDy=0;entryPerimeter=0;exitX=0.5;exitY=0;exitDx=0;exitDy=0;" edge="1" parent="1" source="fTiIdBH1RYLGVKj4Ybnj-10" target="fTiIdBH1RYLGVKj4Ybnj-4">
          <mxGeometry x="0.26" y="-71" width="160" relative="1" as="geometry">
            <mxPoint x="-240" y="240" as="sourcePoint" />
            <mxPoint x="140" y="210" as="targetPoint" />
            <mxPoint as="offset" />
          </mxGeometry>
        </mxCell>
        <mxCell id="fTiIdBH1RYLGVKj4Ybnj-10" value="Admin" style="swimlane;fontStyle=1;align=center;verticalAlign=middle;childLayout=stackLayout;horizontal=1;startSize=29;horizontalStack=0;resizeParent=1;resizeParentMax=0;resizeLast=0;collapsible=0;marginBottom=0;html=1;whiteSpace=wrap;" vertex="1" parent="1">
          <mxGeometry x="-320" y="250" width="140" height="60" as="geometry" />
        </mxCell>
        <mxCell id="fTiIdBH1RYLGVKj4Ybnj-11" value="- adminId" style="text;html=1;strokeColor=none;fillColor=none;align=left;verticalAlign=middle;spacingLeft=4;spacingRight=4;overflow=hidden;rotatable=0;points=[[0,0.5],[1,0.5]];portConstraint=eastwest;whiteSpace=wrap;" vertex="1" parent="fTiIdBH1RYLGVKj4Ybnj-10">
          <mxGeometry y="29" width="140" height="31" as="geometry" />
        </mxCell>
        <mxCell id="fTiIdBH1RYLGVKj4Ybnj-12" value="" style="endArrow=block;endSize=16;endFill=0;html=1;rounded=0;entryX=0.471;entryY=0.972;entryDx=0;entryDy=0;entryPerimeter=0;exitX=0.5;exitY=0;exitDx=0;exitDy=0;" edge="1" parent="1" source="fTiIdBH1RYLGVKj4Ybnj-13" target="fTiIdBH1RYLGVKj4Ybnj-4">
          <mxGeometry x="0.26" y="-71" width="160" relative="1" as="geometry">
            <mxPoint x="50" y="368" as="sourcePoint" />
            <mxPoint x="262" y="240" as="targetPoint" />
            <mxPoint as="offset" />
          </mxGeometry>
        </mxCell>
        <mxCell id="fTiIdBH1RYLGVKj4Ybnj-13" value="Passenger" style="swimlane;fontStyle=1;align=center;verticalAlign=middle;childLayout=stackLayout;horizontal=1;startSize=29;horizontalStack=0;resizeParent=1;resizeParentMax=0;resizeLast=0;collapsible=0;marginBottom=0;html=1;whiteSpace=wrap;" vertex="1" parent="1">
          <mxGeometry x="-90" y="250" width="140" height="60" as="geometry" />
        </mxCell>
        <mxCell id="fTiIdBH1RYLGVKj4Ybnj-14" value="- passengerId" style="text;html=1;strokeColor=none;fillColor=none;align=left;verticalAlign=middle;spacingLeft=4;spacingRight=4;overflow=hidden;rotatable=0;points=[[0,0.5],[1,0.5]];portConstraint=eastwest;whiteSpace=wrap;" vertex="1" parent="fTiIdBH1RYLGVKj4Ybnj-13">
          <mxGeometry y="29" width="140" height="31" as="geometry" />
        </mxCell>
        <mxCell id="fTiIdBH1RYLGVKj4Ybnj-15" value="" style="endArrow=block;endSize=16;endFill=0;html=1;rounded=0;exitX=0.5;exitY=0;exitDx=0;exitDy=0;" edge="1" parent="1">
          <mxGeometry x="0.26" y="-71" width="160" relative="1" as="geometry">
            <mxPoint x="630" y="180" as="sourcePoint" />
            <mxPoint x="-50" y="120" as="targetPoint" />
            <mxPoint as="offset" />
            <Array as="points">
              <mxPoint x="630" y="120" />
            </Array>
          </mxGeometry>
        </mxCell>
        <mxCell id="fTiIdBH1RYLGVKj4Ybnj-16" value="Technician" style="swimlane;fontStyle=1;align=center;verticalAlign=middle;childLayout=stackLayout;horizontal=1;startSize=29;horizontalStack=0;resizeParent=1;resizeParentMax=0;resizeLast=0;collapsible=0;marginBottom=0;html=1;whiteSpace=wrap;" vertex="1" parent="1">
          <mxGeometry x="570" y="170" width="140" height="60" as="geometry" />
        </mxCell>
        <mxCell id="fTiIdBH1RYLGVKj4Ybnj-17" value="- IdTechnician" style="text;html=1;strokeColor=none;fillColor=none;align=left;verticalAlign=middle;spacingLeft=4;spacingRight=4;overflow=hidden;rotatable=0;points=[[0,0.5],[1,0.5]];portConstraint=eastwest;whiteSpace=wrap;" vertex="1" parent="fTiIdBH1RYLGVKj4Ybnj-16">
          <mxGeometry y="29" width="140" height="31" as="geometry" />
        </mxCell>
        <mxCell id="fTiIdBH1RYLGVKj4Ybnj-50" style="edgeStyle=orthogonalEdgeStyle;rounded=0;orthogonalLoop=1;jettySize=auto;html=1;entryX=0.434;entryY=0.977;entryDx=0;entryDy=0;entryPerimeter=0;endArrow=none;startFill=0;" edge="1" parent="1" source="fTiIdBH1RYLGVKj4Ybnj-18" target="fTiIdBH1RYLGVKj4Ybnj-14">
          <mxGeometry relative="1" as="geometry">
            <mxPoint x="-30" y="320" as="targetPoint" />
          </mxGeometry>
        </mxCell>
        <mxCell id="fTiIdBH1RYLGVKj4Ybnj-18" value="Metro" style="swimlane;fontStyle=1;align=center;verticalAlign=middle;childLayout=stackLayout;horizontal=1;startSize=29;horizontalStack=0;resizeParent=1;resizeParentMax=0;resizeLast=0;collapsible=0;marginBottom=0;html=1;whiteSpace=wrap;" vertex="1" parent="1">
          <mxGeometry x="-80" y="470" width="140" height="100" as="geometry" />
        </mxCell>
        <mxCell id="fTiIdBH1RYLGVKj4Ybnj-19" value="- IdMetro&lt;div&gt;- status&lt;/div&gt;&lt;div&gt;- numberOfPassangers&lt;/div&gt;" style="text;html=1;strokeColor=none;fillColor=none;align=left;verticalAlign=middle;spacingLeft=4;spacingRight=4;overflow=hidden;rotatable=0;points=[[0,0.5],[1,0.5]];portConstraint=eastwest;whiteSpace=wrap;" vertex="1" parent="fTiIdBH1RYLGVKj4Ybnj-18">
          <mxGeometry y="29" width="140" height="71" as="geometry" />
        </mxCell>
        <mxCell id="fTiIdBH1RYLGVKj4Ybnj-41" style="edgeStyle=orthogonalEdgeStyle;rounded=0;orthogonalLoop=1;jettySize=auto;html=1;entryX=0;entryY=0.5;entryDx=0;entryDy=0;endArrow=none;startFill=0;" edge="1" parent="1" source="fTiIdBH1RYLGVKj4Ybnj-20" target="fTiIdBH1RYLGVKj4Ybnj-23">
          <mxGeometry relative="1" as="geometry" />
        </mxCell>
        <mxCell id="fTiIdBH1RYLGVKj4Ybnj-20" value="Station" style="swimlane;fontStyle=1;align=center;verticalAlign=middle;childLayout=stackLayout;horizontal=1;startSize=29;horizontalStack=0;resizeParent=1;resizeParentMax=0;resizeLast=0;collapsible=0;marginBottom=0;html=1;whiteSpace=wrap;" vertex="1" parent="1">
          <mxGeometry x="-590" y="415" width="140" height="100" as="geometry" />
        </mxCell>
        <mxCell id="fTiIdBH1RYLGVKj4Ybnj-21" value="- stationId&lt;div&gt;- name&lt;/div&gt;&lt;div&gt;- address&lt;/div&gt;" style="text;html=1;strokeColor=none;fillColor=none;align=left;verticalAlign=middle;spacingLeft=4;spacingRight=4;overflow=hidden;rotatable=0;points=[[0,0.5],[1,0.5]];portConstraint=eastwest;whiteSpace=wrap;" vertex="1" parent="fTiIdBH1RYLGVKj4Ybnj-20">
          <mxGeometry y="29" width="140" height="71" as="geometry" />
        </mxCell>
        <mxCell id="fTiIdBH1RYLGVKj4Ybnj-22" value="Schedule" style="swimlane;fontStyle=1;align=center;verticalAlign=middle;childLayout=stackLayout;horizontal=1;startSize=29;horizontalStack=0;resizeParent=1;resizeParentMax=0;resizeLast=0;collapsible=0;marginBottom=0;html=1;whiteSpace=wrap;" vertex="1" parent="1">
          <mxGeometry x="-330" y="420" width="140" height="100" as="geometry" />
        </mxCell>
        <mxCell id="fTiIdBH1RYLGVKj4Ybnj-23" value="- scheduleId&lt;div&gt;&lt;font&gt;-&amp;nbsp;&lt;span style=&quot;background-color: rgb(255, 255, 255); color: rgb(0, 0, 0); font-family: sans-serif; text-wrap-mode: nowrap;&quot;&gt;&lt;font style=&quot;&quot;&gt;departureTime&lt;/font&gt;&lt;/span&gt;&lt;/font&gt;&lt;/div&gt;&lt;div&gt;&lt;span style=&quot;background-color: rgb(255, 255, 255); color: rgb(0, 0, 0); font-family: sans-serif; text-wrap-mode: nowrap;&quot;&gt;&lt;font&gt;- arrivalTime&lt;/font&gt;&lt;/span&gt;&lt;/div&gt;" style="text;html=1;strokeColor=none;fillColor=none;align=left;verticalAlign=middle;spacingLeft=4;spacingRight=4;overflow=hidden;rotatable=0;points=[[0,0.5],[1,0.5]];portConstraint=eastwest;whiteSpace=wrap;" vertex="1" parent="fTiIdBH1RYLGVKj4Ybnj-22">
          <mxGeometry y="29" width="140" height="71" as="geometry" />
        </mxCell>
        <mxCell id="fTiIdBH1RYLGVKj4Ybnj-24" value="" style="endArrow=none;html=1;edgeStyle=orthogonalEdgeStyle;rounded=0;exitX=0.421;exitY=1.097;exitDx=0;exitDy=0;exitPerimeter=0;entryX=0.5;entryY=0;entryDx=0;entryDy=0;" edge="1" parent="1" source="fTiIdBH1RYLGVKj4Ybnj-11" target="fTiIdBH1RYLGVKj4Ybnj-22">
          <mxGeometry relative="1" as="geometry">
            <mxPoint x="-350" y="420" as="sourcePoint" />
            <mxPoint x="-190" y="420" as="targetPoint" />
            <Array as="points">
              <mxPoint x="-260" y="313" />
            </Array>
          </mxGeometry>
        </mxCell>
        <mxCell id="fTiIdBH1RYLGVKj4Ybnj-25" value="&lt;font style=&quot;font-size: 14px;&quot;&gt;1&lt;/font&gt;" style="edgeLabel;resizable=0;html=1;align=left;verticalAlign=bottom;" connectable="0" vertex="1" parent="fTiIdBH1RYLGVKj4Ybnj-24">
          <mxGeometry x="-1" relative="1" as="geometry">
            <mxPoint x="11" y="17" as="offset" />
          </mxGeometry>
        </mxCell>
        <mxCell id="fTiIdBH1RYLGVKj4Ybnj-26" value="&lt;font style=&quot;font-size: 14px;&quot;&gt;*&lt;/font&gt;" style="edgeLabel;resizable=0;html=1;align=right;verticalAlign=bottom;" connectable="0" vertex="1" parent="fTiIdBH1RYLGVKj4Ybnj-24">
          <mxGeometry x="1" relative="1" as="geometry">
            <mxPoint x="-10" as="offset" />
          </mxGeometry>
        </mxCell>
        <mxCell id="fTiIdBH1RYLGVKj4Ybnj-33" style="edgeStyle=orthogonalEdgeStyle;rounded=0;orthogonalLoop=1;jettySize=auto;html=1;entryX=0;entryY=0.5;entryDx=0;entryDy=0;endArrow=none;startFill=0;" edge="1" parent="1" source="fTiIdBH1RYLGVKj4Ybnj-23" target="fTiIdBH1RYLGVKj4Ybnj-19">
          <mxGeometry relative="1" as="geometry" />
        </mxCell>
        <mxCell id="fTiIdBH1RYLGVKj4Ybnj-34" value="1" style="text;html=1;align=center;verticalAlign=middle;resizable=0;points=[];autosize=1;strokeColor=none;fillColor=none;" vertex="1" parent="1">
          <mxGeometry x="-150" y="455" width="30" height="30" as="geometry" />
        </mxCell>
        <mxCell id="fTiIdBH1RYLGVKj4Ybnj-35" value="*" style="text;html=1;align=center;verticalAlign=middle;resizable=0;points=[];autosize=1;strokeColor=none;fillColor=none;" vertex="1" parent="1">
          <mxGeometry x="-190" y="485" width="30" height="30" as="geometry" />
        </mxCell>
        <mxCell id="fTiIdBH1RYLGVKj4Ybnj-36" value="manages" style="text;html=1;align=center;verticalAlign=middle;resizable=0;points=[];autosize=1;strokeColor=none;fillColor=none;" vertex="1" parent="1">
          <mxGeometry x="-260" y="348" width="70" height="30" as="geometry" />
        </mxCell>
        <mxCell id="fTiIdBH1RYLGVKj4Ybnj-42" value="*" style="text;html=1;align=center;verticalAlign=middle;resizable=0;points=[];autosize=1;strokeColor=none;fillColor=none;" vertex="1" parent="1">
          <mxGeometry x="-355" y="458" width="30" height="30" as="geometry" />
        </mxCell>
        <mxCell id="fTiIdBH1RYLGVKj4Ybnj-43" value="1" style="text;html=1;align=center;verticalAlign=middle;resizable=0;points=[];autosize=1;strokeColor=none;fillColor=none;" vertex="1" parent="1">
          <mxGeometry x="-450" y="440" width="30" height="30" as="geometry" />
        </mxCell>
        <mxCell id="fTiIdBH1RYLGVKj4Ybnj-44" value="DepartureStation" style="text;html=1;align=center;verticalAlign=middle;resizable=0;points=[];autosize=1;strokeColor=none;fillColor=none;" vertex="1" parent="1">
          <mxGeometry x="-440" y="415" width="110" height="30" as="geometry" />
        </mxCell>
        <mxCell id="fTiIdBH1RYLGVKj4Ybnj-45" style="edgeStyle=orthogonalEdgeStyle;rounded=0;orthogonalLoop=1;jettySize=auto;html=1;entryX=0.471;entryY=0.986;entryDx=0;entryDy=0;entryPerimeter=0;endArrow=none;startFill=0;" edge="1" parent="1" source="fTiIdBH1RYLGVKj4Ybnj-22" target="fTiIdBH1RYLGVKj4Ybnj-21">
          <mxGeometry relative="1" as="geometry">
            <Array as="points">
              <mxPoint x="-260" y="570" />
              <mxPoint x="-524" y="570" />
            </Array>
          </mxGeometry>
        </mxCell>
        <mxCell id="fTiIdBH1RYLGVKj4Ybnj-46" value="ArrivalStation" style="text;html=1;align=center;verticalAlign=middle;resizable=0;points=[];autosize=1;strokeColor=none;fillColor=none;" vertex="1" parent="1">
          <mxGeometry x="-430" y="540" width="90" height="30" as="geometry" />
        </mxCell>
        <mxCell id="fTiIdBH1RYLGVKj4Ybnj-47" value="*" style="text;html=1;align=center;verticalAlign=middle;resizable=0;points=[];autosize=1;strokeColor=none;fillColor=none;" vertex="1" parent="1">
          <mxGeometry x="-265" y="518" width="30" height="30" as="geometry" />
        </mxCell>
        <mxCell id="fTiIdBH1RYLGVKj4Ybnj-48" value="1" style="text;html=1;align=center;verticalAlign=middle;resizable=0;points=[];autosize=1;strokeColor=none;fillColor=none;" vertex="1" parent="1">
          <mxGeometry x="-545" y="518" width="30" height="30" as="geometry" />
        </mxCell>
        <mxCell id="fTiIdBH1RYLGVKj4Ybnj-51" value="1..*" style="text;html=1;align=center;verticalAlign=middle;resizable=0;points=[];autosize=1;strokeColor=none;fillColor=none;" vertex="1" parent="1">
          <mxGeometry x="-70" y="310" width="40" height="30" as="geometry" />
        </mxCell>
        <mxCell id="fTiIdBH1RYLGVKj4Ybnj-52" value="1" style="text;html=1;align=center;verticalAlign=middle;resizable=0;points=[];autosize=1;strokeColor=none;fillColor=none;" vertex="1" parent="1">
          <mxGeometry x="-45" y="440" width="30" height="30" as="geometry" />
        </mxCell>
        <mxCell id="fTiIdBH1RYLGVKj4Ybnj-53" value="" style="endArrow=none;dashed=1;endFill=0;endSize=12;html=1;rounded=0;startFill=0;entryX=-0.028;entryY=0.331;entryDx=0;entryDy=0;entryPerimeter=0;" edge="1" parent="1" target="fTiIdBH1RYLGVKj4Ybnj-55">
          <mxGeometry width="160" relative="1" as="geometry">
            <mxPoint x="-10" y="390" as="sourcePoint" />
            <mxPoint x="90" y="390" as="targetPoint" />
          </mxGeometry>
        </mxCell>
        <mxCell id="fTiIdBH1RYLGVKj4Ybnj-54" value="bookingLog" style="swimlane;fontStyle=1;align=center;verticalAlign=middle;childLayout=stackLayout;horizontal=1;startSize=29;horizontalStack=0;resizeParent=1;resizeParentMax=0;resizeLast=0;collapsible=0;marginBottom=0;html=1;whiteSpace=wrap;" vertex="1" parent="1">
          <mxGeometry x="150" y="430" width="120" height="70" as="geometry" />
        </mxCell>
        <mxCell id="fTiIdBH1RYLGVKj4Ybnj-55" value="- IdBook&lt;div&gt;- time&lt;/div&gt;" style="text;html=1;strokeColor=none;fillColor=none;align=left;verticalAlign=middle;spacingLeft=4;spacingRight=4;overflow=hidden;rotatable=0;points=[[0,0.5],[1,0.5]];portConstraint=eastwest;whiteSpace=wrap;" vertex="1" parent="fTiIdBH1RYLGVKj4Ybnj-54">
          <mxGeometry y="29" width="120" height="41" as="geometry" />
        </mxCell>
        <mxCell id="fTiIdBH1RYLGVKj4Ybnj-56" value="trackingLog" style="swimlane;fontStyle=1;align=center;verticalAlign=middle;childLayout=stackLayout;horizontal=1;startSize=29;horizontalStack=0;resizeParent=1;resizeParentMax=0;resizeLast=0;collapsible=0;marginBottom=0;html=1;whiteSpace=wrap;" vertex="1" parent="1">
          <mxGeometry x="350" y="610" width="140" height="140" as="geometry" />
        </mxCell>
        <mxCell id="fTiIdBH1RYLGVKj4Ybnj-57" value="&lt;div&gt;- IdTrack&lt;br&gt;- departureTime&lt;/div&gt;- currentTime&lt;div&gt;- expectedArrival&lt;/div&gt;&lt;div&gt;- currentLatitude&lt;/div&gt;&lt;div&gt;- currentLongitude&lt;/div&gt;&lt;div&gt;- currentSpeed&lt;/div&gt;" style="text;html=1;strokeColor=none;fillColor=none;align=left;verticalAlign=middle;spacingLeft=4;spacingRight=4;overflow=hidden;rotatable=0;points=[[0,0.5],[1,0.5]];portConstraint=eastwest;whiteSpace=wrap;" vertex="1" parent="fTiIdBH1RYLGVKj4Ybnj-56">
          <mxGeometry y="29" width="140" height="111" as="geometry" />
        </mxCell>
        <mxCell id="fTiIdBH1RYLGVKj4Ybnj-58" style="edgeStyle=orthogonalEdgeStyle;rounded=0;orthogonalLoop=1;jettySize=auto;html=1;endArrow=none;startFill=0;entryX=0.355;entryY=1.016;entryDx=0;entryDy=0;entryPerimeter=0;exitX=-0.002;exitY=0.335;exitDx=0;exitDy=0;exitPerimeter=0;" edge="1" parent="1" source="fTiIdBH1RYLGVKj4Ybnj-57" target="fTiIdBH1RYLGVKj4Ybnj-19">
          <mxGeometry relative="1" as="geometry">
            <mxPoint x="100" y="620" as="sourcePoint" />
            <mxPoint x="-30" y="580" as="targetPoint" />
            <Array as="points">
              <mxPoint x="350" y="680" />
              <mxPoint x="-30" y="680" />
            </Array>
          </mxGeometry>
        </mxCell>
        <mxCell id="fTiIdBH1RYLGVKj4Ybnj-59" value="1" style="text;html=1;align=center;verticalAlign=middle;resizable=0;points=[];autosize=1;strokeColor=none;fillColor=none;" vertex="1" parent="1">
          <mxGeometry x="-50" y="570" width="30" height="30" as="geometry" />
        </mxCell>
        <mxCell id="fTiIdBH1RYLGVKj4Ybnj-61" value="*" style="text;html=1;align=center;verticalAlign=middle;resizable=0;points=[];autosize=1;strokeColor=none;fillColor=none;" vertex="1" parent="1">
          <mxGeometry x="320" y="650" width="30" height="30" as="geometry" />
        </mxCell>
        <mxCell id="fTiIdBH1RYLGVKj4Ybnj-62" value="Records" style="text;html=1;align=center;verticalAlign=middle;resizable=0;points=[];autosize=1;strokeColor=none;fillColor=none;" vertex="1" parent="1">
          <mxGeometry x="120" y="650" width="70" height="30" as="geometry" />
        </mxCell>
        <mxCell id="fTiIdBH1RYLGVKj4Ybnj-64" value="reportLog" style="swimlane;fontStyle=1;align=center;verticalAlign=middle;childLayout=stackLayout;horizontal=1;startSize=29;horizontalStack=0;resizeParent=1;resizeParentMax=0;resizeLast=0;collapsible=0;marginBottom=0;html=1;whiteSpace=wrap;" vertex="1" parent="1">
          <mxGeometry x="330" y="185" width="140" height="70" as="geometry" />
        </mxCell>
        <mxCell id="fTiIdBH1RYLGVKj4Ybnj-65" value="- IdReport&lt;div&gt;&lt;span style=&quot;background-color: transparent; color: light-dark(rgb(0, 0, 0), rgb(255, 255, 255));&quot;&gt;- type&lt;/span&gt;&lt;/div&gt;" style="text;html=1;strokeColor=none;fillColor=none;align=left;verticalAlign=middle;spacingLeft=4;spacingRight=4;overflow=hidden;rotatable=0;points=[[0,0.5],[1,0.5]];portConstraint=eastwest;whiteSpace=wrap;" vertex="1" parent="fTiIdBH1RYLGVKj4Ybnj-64">
          <mxGeometry y="29" width="140" height="41" as="geometry" />
        </mxCell>
        <mxCell id="fTiIdBH1RYLGVKj4Ybnj-66" style="edgeStyle=orthogonalEdgeStyle;rounded=0;orthogonalLoop=1;jettySize=auto;html=1;entryX=0;entryY=0.5;entryDx=0;entryDy=0;endArrow=none;startFill=0;" edge="1" parent="1" source="fTiIdBH1RYLGVKj4Ybnj-14" target="fTiIdBH1RYLGVKj4Ybnj-65">
          <mxGeometry relative="1" as="geometry" />
        </mxCell>
        <mxCell id="fTiIdBH1RYLGVKj4Ybnj-67" value="submit" style="text;html=1;align=center;verticalAlign=middle;resizable=0;points=[];autosize=1;strokeColor=none;fillColor=none;" vertex="1" parent="1">
          <mxGeometry x="170" y="205" width="60" height="30" as="geometry" />
        </mxCell>
        <mxCell id="fTiIdBH1RYLGVKj4Ybnj-69" value="*" style="text;html=1;align=center;verticalAlign=middle;resizable=0;points=[];autosize=1;strokeColor=none;fillColor=none;" vertex="1" parent="1">
          <mxGeometry x="300" y="205" width="30" height="30" as="geometry" />
        </mxCell>
        <mxCell id="fTiIdBH1RYLGVKj4Ybnj-70" value="1" style="text;html=1;align=center;verticalAlign=middle;resizable=0;points=[];autosize=1;strokeColor=none;fillColor=none;" vertex="1" parent="1">
          <mxGeometry x="50" y="265" width="30" height="30" as="geometry" />
        </mxCell>
        <mxCell id="fTiIdBH1RYLGVKj4Ybnj-73" value="card" style="swimlane;fontStyle=1;align=center;verticalAlign=middle;childLayout=stackLayout;horizontal=1;startSize=29;horizontalStack=0;resizeParent=1;resizeParentMax=0;resizeLast=0;collapsible=0;marginBottom=0;html=1;whiteSpace=wrap;" vertex="1" parent="1">
          <mxGeometry x="230" y="290" width="140" height="80" as="geometry" />
        </mxCell>
        <mxCell id="fTiIdBH1RYLGVKj4Ybnj-74" value="- IdCard&lt;div&gt;- currentBalance&lt;/div&gt;" style="text;html=1;strokeColor=none;fillColor=none;align=left;verticalAlign=middle;spacingLeft=4;spacingRight=4;overflow=hidden;rotatable=0;points=[[0,0.5],[1,0.5]];portConstraint=eastwest;whiteSpace=wrap;" vertex="1" parent="fTiIdBH1RYLGVKj4Ybnj-73">
          <mxGeometry y="29" width="140" height="51" as="geometry" />
        </mxCell>
        <mxCell id="fTiIdBH1RYLGVKj4Ybnj-75" style="edgeStyle=orthogonalEdgeStyle;rounded=0;orthogonalLoop=1;jettySize=auto;html=1;endArrow=none;startFill=0;entryX=0.685;entryY=1.05;entryDx=0;entryDy=0;entryPerimeter=0;" edge="1" parent="1" source="fTiIdBH1RYLGVKj4Ybnj-74" target="fTiIdBH1RYLGVKj4Ybnj-14">
          <mxGeometry relative="1" as="geometry">
            <mxPoint x="140" y="290.00000000000006" as="targetPoint" />
            <Array as="points">
              <mxPoint x="115" y="345" />
              <mxPoint x="6" y="345" />
            </Array>
          </mxGeometry>
        </mxCell>
        <mxCell id="fTiIdBH1RYLGVKj4Ybnj-76" value="Holds" style="text;html=1;align=center;verticalAlign=middle;resizable=0;points=[];autosize=1;strokeColor=none;fillColor=none;" vertex="1" parent="1">
          <mxGeometry x="90" y="318" width="50" height="30" as="geometry" />
        </mxCell>
        <mxCell id="fTiIdBH1RYLGVKj4Ybnj-77" value="1" style="text;html=1;align=center;verticalAlign=middle;resizable=0;points=[];autosize=1;strokeColor=none;fillColor=none;" vertex="1" parent="1">
          <mxGeometry x="200" y="340" width="30" height="30" as="geometry" />
        </mxCell>
        <mxCell id="fTiIdBH1RYLGVKj4Ybnj-78" value="1" style="text;html=1;align=center;verticalAlign=middle;resizable=0;points=[];autosize=1;strokeColor=none;fillColor=none;" vertex="1" parent="1">
          <mxGeometry y="310" width="30" height="30" as="geometry" />
        </mxCell>
        <mxCell id="fTiIdBH1RYLGVKj4Ybnj-82" style="edgeStyle=orthogonalEdgeStyle;rounded=0;orthogonalLoop=1;jettySize=auto;html=1;entryX=0.486;entryY=1.065;entryDx=0;entryDy=0;entryPerimeter=0;endArrow=none;startFill=0;" edge="1" parent="1" source="fTiIdBH1RYLGVKj4Ybnj-79" target="fTiIdBH1RYLGVKj4Ybnj-17">
          <mxGeometry relative="1" as="geometry">
            <mxPoint x="640.0000000000002" y="240" as="targetPoint" />
            <Array as="points">
              <mxPoint x="640" y="232" />
            </Array>
          </mxGeometry>
        </mxCell>
        <mxCell id="fTiIdBH1RYLGVKj4Ybnj-83" value="issue" style="edgeLabel;html=1;align=center;verticalAlign=middle;resizable=0;points=[];" vertex="1" connectable="0" parent="fTiIdBH1RYLGVKj4Ybnj-82">
          <mxGeometry x="-0.1436" y="-7" relative="1" as="geometry">
            <mxPoint x="-27" as="offset" />
          </mxGeometry>
        </mxCell>
        <mxCell id="fTiIdBH1RYLGVKj4Ybnj-79" value="maintenanceLog" style="swimlane;fontStyle=1;align=center;verticalAlign=middle;childLayout=stackLayout;horizontal=1;startSize=29;horizontalStack=0;resizeParent=1;resizeParentMax=0;resizeLast=0;collapsible=0;marginBottom=0;html=1;whiteSpace=wrap;" vertex="1" parent="1">
          <mxGeometry x="570" y="318" width="140" height="60" as="geometry" />
        </mxCell>
        <mxCell id="fTiIdBH1RYLGVKj4Ybnj-80" value="- IdMaintenance&lt;div&gt;&lt;br&gt;&lt;/div&gt;" style="text;html=1;strokeColor=none;fillColor=none;align=left;verticalAlign=middle;spacingLeft=4;spacingRight=4;overflow=hidden;rotatable=0;points=[[0,0.5],[1,0.5]];portConstraint=eastwest;whiteSpace=wrap;" vertex="1" parent="fTiIdBH1RYLGVKj4Ybnj-79">
          <mxGeometry y="29" width="140" height="31" as="geometry" />
        </mxCell>
        <mxCell id="fTiIdBH1RYLGVKj4Ybnj-84" value="1" style="text;html=1;align=center;verticalAlign=middle;resizable=0;points=[];autosize=1;strokeColor=none;fillColor=none;" vertex="1" parent="1">
          <mxGeometry x="615" y="230" width="30" height="30" as="geometry" />
        </mxCell>
        <mxCell id="fTiIdBH1RYLGVKj4Ybnj-85" value="*" style="text;html=1;align=center;verticalAlign=middle;resizable=0;points=[];autosize=1;strokeColor=none;fillColor=none;" vertex="1" parent="1">
          <mxGeometry x="645" y="290" width="30" height="30" as="geometry" />
        </mxCell>
        <mxCell id="fTiIdBH1RYLGVKj4Ybnj-86" value="&lt;i&gt;log&lt;/i&gt;" style="swimlane;fontStyle=1;align=center;verticalAlign=middle;childLayout=stackLayout;horizontal=1;startSize=29;horizontalStack=0;resizeParent=1;resizeParentMax=0;resizeLast=0;collapsible=0;marginBottom=0;html=1;whiteSpace=wrap;" vertex="1" parent="1">
          <mxGeometry x="420" y="430" width="140" height="70" as="geometry" />
        </mxCell>
        <mxCell id="fTiIdBH1RYLGVKj4Ybnj-87" value="&lt;div&gt;- time&lt;/div&gt;&lt;div&gt;- decription&lt;/div&gt;" style="text;html=1;strokeColor=none;fillColor=none;align=left;verticalAlign=middle;spacingLeft=4;spacingRight=4;overflow=hidden;rotatable=0;points=[[0,0.5],[1,0.5]];portConstraint=eastwest;whiteSpace=wrap;" vertex="1" parent="fTiIdBH1RYLGVKj4Ybnj-86">
          <mxGeometry y="29" width="140" height="41" as="geometry" />
        </mxCell>
        <mxCell id="fTiIdBH1RYLGVKj4Ybnj-88" value="" style="endArrow=block;endSize=16;endFill=0;html=1;rounded=0;entryX=0.661;entryY=1.033;entryDx=0;entryDy=0;entryPerimeter=0;exitX=0;exitY=0;exitDx=0;exitDy=0;" edge="1" parent="1" source="fTiIdBH1RYLGVKj4Ybnj-86" target="fTiIdBH1RYLGVKj4Ybnj-65">
          <mxGeometry x="0.26" y="-71" width="160" relative="1" as="geometry">
            <mxPoint x="264" y="372" as="sourcePoint" />
            <mxPoint x="250" y="230" as="targetPoint" />
            <mxPoint as="offset" />
          </mxGeometry>
        </mxCell>
        <mxCell id="fTiIdBH1RYLGVKj4Ybnj-89" value="" style="endArrow=block;endSize=16;endFill=0;html=1;rounded=0;entryX=0.577;entryY=0.947;entryDx=0;entryDy=0;entryPerimeter=0;exitX=0.985;exitY=-0.036;exitDx=0;exitDy=0;exitPerimeter=0;" edge="1" parent="1" source="fTiIdBH1RYLGVKj4Ybnj-87" target="fTiIdBH1RYLGVKj4Ybnj-80">
          <mxGeometry x="0.26" y="-71" width="160" relative="1" as="geometry">
            <mxPoint x="619" y="522" as="sourcePoint" />
            <mxPoint x="530" y="350" as="targetPoint" />
            <mxPoint as="offset" />
            <Array as="points">
              <mxPoint x="650" y="460" />
            </Array>
          </mxGeometry>
        </mxCell>
        <mxCell id="fTiIdBH1RYLGVKj4Ybnj-90" value="" style="endArrow=block;endSize=16;endFill=0;html=1;rounded=0;entryX=0.566;entryY=0.002;entryDx=0;entryDy=0;entryPerimeter=0;exitX=0.489;exitY=1.083;exitDx=0;exitDy=0;exitPerimeter=0;" edge="1" parent="1" source="fTiIdBH1RYLGVKj4Ybnj-87" target="fTiIdBH1RYLGVKj4Ybnj-56">
          <mxGeometry x="0.26" y="-71" width="160" relative="1" as="geometry">
            <mxPoint x="660" y="552" as="sourcePoint" />
            <mxPoint x="753" y="470" as="targetPoint" />
            <mxPoint as="offset" />
            <Array as="points">
              <mxPoint x="488" y="560" />
            </Array>
          </mxGeometry>
        </mxCell>
      </root>
    </mxGraphModel>
  </diagram>
</mxfile>
